<svg xmlns="http://www.w3.org/2000/svg" width="56" height="52" viewBox="0 0 56 52">
<rect x="0" y="0" width="56" height="1.5" fill="#c8962c"/>
<rect x="0" y="50.5" width="56" height="1.5" fill="#c8962c"/>
<rect x="0" y="1.5" width="56" height="7.5" fill="#7a0f38"/>
<circle cx="4" cy="5.25" r="1.5" fill="#e6b23c"/>
<circle cx="12" cy="5.25" r="1.5" fill="#e6b23c"/>
<circle cx="20" cy="5.25" r="1.5" fill="#e6b23c"/>
<circle cx="28" cy="5.25" r="1.5" fill="#e6b23c"/>
<circle cx="36" cy="5.25" r="1.5" fill="#e6b23c"/>
<circle cx="44" cy="5.25" r="1.5" fill="#e6b23c"/>
<circle cx="52" cy="5.25" r="1.5" fill="#e6b23c"/>
<rect x="0" y="9" width="56" height="1" fill="#fbf4e3" opacity="0.8"/>
<rect x="0" y="42" width="56" height="1" fill="#fbf4e3" opacity="0.8"/>
<rect x="0" y="10" width="56" height="32" fill="#7a0f38"/>
<rect x="25.7" y="13.0" width="4.8" height="2" fill="#e6b23c"/>
<rect x="20.5" y="15.0" width="15.4" height="2" fill="#e6b23c"/>
<rect x="19.2" y="17.0" width="18.8" height="2" fill="#e6b23c"/>
<rect x="23.0" y="19.0" width="10.7" height="2" fill="#e6b23c"/>
<rect x="16.7" y="21.0" width="22.8" height="2" fill="#e6b23c"/>
<rect x="13.5" y="23.0" width="29.7" height="2" fill="#e6b23c"/>
<rect x="13.2" y="25.0" width="31.0" height="2" fill="#e6b23c"/>
<rect x="13.5" y="27.0" width="29.4" height="2" fill="#e6b23c"/>
<rect x="16.7" y="29.0" width="22.8" height="2" fill="#e6b23c"/>
<rect x="23.0" y="31.0" width="10.7" height="2" fill="#e6b23c"/>
<rect x="19.2" y="33.0" width="18.8" height="2" fill="#e6b23c"/>
<rect x="20.5" y="35.0" width="15.4" height="2" fill="#e6b23c"/>
<rect x="25.7" y="37.0" width="4.8" height="2" fill="#e6b23c"/>
<rect x="26.3" y="15.0" width="3.6" height="2" fill="#fbf4e3"/>
<rect x="24.0" y="17.0" width="8.5" height="2" fill="#fbf4e3"/>
<rect x="21.8" y="21.0" width="12.5" height="2" fill="#fbf4e3"/>
<rect x="19.3" y="23.0" width="17.7" height="2" fill="#fbf4e3"/>
<rect x="18.0" y="25.0" width="20.6" height="2" fill="#fbf4e3"/>
<rect x="19.3" y="27.0" width="17.6" height="2" fill="#fbf4e3"/>
<rect x="21.8" y="29.0" width="12.5" height="2" fill="#fbf4e3"/>
<rect x="24.0" y="33.0" width="8.5" height="2" fill="#fbf4e3"/>
<rect x="26.3" y="35.0" width="3.6" height="2" fill="#fbf4e3"/>
<rect x="25.4" y="23.0" width="5.4" height="2" fill="#0e6b6b"/>
<rect x="23.8" y="25.0" width="8.8" height="2" fill="#0e6b6b"/>
<rect x="25.4" y="27.0" width="5.4" height="2" fill="#0e6b6b"/>
<rect x="-1.3" y="23.0" width="2.6" height="2" fill="#fbf4e3"/>
<rect x="-4.2" y="25.0" width="8.5" height="2" fill="#fbf4e3"/>
<rect x="-1.1" y="27.0" width="2.6" height="2" fill="#fbf4e3"/>
<rect x="54.7" y="23.0" width="2.6" height="2" fill="#fbf4e3"/>
<rect x="51.8" y="25.0" width="8.5" height="2" fill="#fbf4e3"/>
<rect x="54.9" y="27.0" width="2.6" height="2" fill="#fbf4e3"/>
<circle cx="0" cy="15" r="1.1" fill="#e6b23c"/>
<circle cx="0" cy="37" r="1.1" fill="#e6b23c"/>
<circle cx="56" cy="15" r="1.1" fill="#e6b23c"/>
<circle cx="56" cy="37" r="1.1" fill="#e6b23c"/>
<rect x="0" y="43" width="56" height="7.5" fill="#fbf4e3"/>
<rect x="5" y="44.75" width="4" height="4" fill="#c3362b" transform="rotate(45 7 46.75)"/>
<rect x="19" y="44.75" width="4" height="4" fill="#c3362b" transform="rotate(45 21 46.75)"/>
<rect x="33" y="44.75" width="4" height="4" fill="#c3362b" transform="rotate(45 35 46.75)"/>
<rect x="47" y="44.75" width="4" height="4" fill="#c3362b" transform="rotate(45 49 46.75)"/>
</svg>
